# xmcd
#
# Track frame offsets:
#	150
#	33368
#	51548
#	71530
#	84305
#	100993
#	168225
#	217810
#	233820
#	246328
#
# Disc length: 3859
#
# Revision: 3
# Processed by: cddbd v1.5.1PL0 Copyright (c) Steve Scherf et al.
# Submitted via: CDex 1.51
# Normalized: r2:DSETVAR2,TDELIM( - )
#
DISCID=810f110a
DTITLE=Various Artist - DEEP NIGHT JAZZ
DYEAR=1900
DGENRE=Jazz
TTITLE0=Art Blakey and The Jazz Messengers - Les Liasons Dangereuses(No Problem)
TTITLE1=Kewnny Burrell - Midnight Blue
TTITLE2=Bud Powell - Cleopatra's Dream
TTITLE3=The Miles Davis Quintet - Ascenseur Pour L'echafaud
TTITLE4=Jay Jay Johnson - Capri
TTITLE5=John Coltrane - Impressions
TTITLE6=Cannonball Adderley - Autumn Leaves
TTITLE7=4 Freshmen And 5 Trombones - Angel Eyes
TTITLE8=Art Blakey and The Jazz Messengers - Des Femmes Disparaissent
TTITLE9=Sonny Clark - Deep Night
EXTD=
EXTT0=
EXTT1=
EXTT2=
EXTT3=
EXTT4=
EXTT5=
EXTT6=
EXTT7=
EXTT8=
EXTT9=
PLAYORDER=
